<svg width="26" height="26" viewBox="0 0 26 26" fill="none" xmlns="http://www.w3.org/2000/svg">
<path d="M8.12492 11.9166C9.32154 11.9166 10.2916 10.9466 10.2916 9.74996C10.2916 8.55334 9.32154 7.58329 8.12492 7.58329H3.24992V11.9166H8.12492ZM9.20825 14.0833H3.24992V18.4166H9.20825C10.4049 18.4166 11.3749 17.4466 11.3749 16.25C11.3749 15.0533 10.4049 14.0833 9.20825 14.0833ZM11.4434 12.5368C12.7008 13.2953 13.5416 14.6745 13.5416 16.25C13.5416 18.6432 11.6014 20.5833 9.20825 20.5833H1.08325V5.41663H8.12492C10.5182 5.41663 12.4583 7.35672 12.4583 9.74996C12.4583 10.8112 12.0767 11.7834 11.4434 12.5368ZM16.7916 6.49996H22.7499V8.12496H16.7916V6.49996ZM24.9166 15.7083H16.7916V15.9791C16.7916 17.6245 18.1254 18.9583 19.7708 18.9583C20.9285 18.9583 21.932 18.2979 22.425 17.3333H24.7365C24.1421 19.5183 22.144 21.125 19.7708 21.125C16.9287 21.125 14.6249 18.8211 14.6249 15.9791V14.3541C14.6249 11.5121 16.9287 9.20829 19.7708 9.20829C22.6128 9.20829 24.9166 11.5121 24.9166 14.3541V15.7083ZM22.6378 13.5416C22.2841 12.2911 21.1345 11.375 19.7708 11.375C18.4071 11.375 17.2574 12.2911 16.9037 13.5416H22.6378Z" fill="black"/>
</svg>
