<svg width="30" height="30" viewBox="0 0 30 30" fill="none" xmlns="http://www.w3.org/2000/svg">
<path d="M12.5 18.7491C11.6842 19.6234 11.2365 20.7783 11.25 21.9741V26.2491M17.5 18.7491C18.3158 19.6234 18.7635 20.7783 18.75 21.9741V26.2491M11.25 23.8116C10.1319 24.2569 8.91915 24.4117 7.725 24.2616C5.825 23.6116 6.325 21.8866 5.35 21.1741C4.88147 20.8391 4.32546 20.648 3.75 20.6241M23.75 12.1866C23.75 15.9366 21.3125 18.7491 15 18.7491C8.6875 18.7491 6.25 15.9366 6.25 12.1866C6.21912 10.8856 6.51116 9.59715 7.1 8.43658C6.675 6.59908 6.8375 4.33658 7.75 3.88658C8.6625 3.43658 10.5875 4.26158 12.175 5.32408C13.1075 5.15768 14.0528 5.07403 15 5.07408C15.9465 5.06577 16.8918 5.14106 17.825 5.29908C19.4125 4.23658 21.425 3.44908 22.25 3.86158C23.075 4.27408 23.325 6.57408 22.9 8.41158C23.4929 9.57964 23.785 10.8771 23.75 12.1866Z" stroke="#010100" stroke-width="2" stroke-linecap="round" stroke-linejoin="round"/>
</svg>
