<svg width="30" height="30" viewBox="0 0 30 30" fill="none" xmlns="http://www.w3.org/2000/svg">
<path d="M21.3079 8.74931H21.3204M3.80786 15C3.80786 11.858 3.80786 10.287 4.24979 9.02405C5.04131 6.76199 6.81985 4.98345 9.08191 4.19192C10.3448 3.75 11.9158 3.75 15.0579 3.75C18.1999 3.75 19.7709 3.75 21.0339 4.19192C23.2959 4.98345 25.0744 6.76199 25.866 9.02405C26.3079 10.287 26.3079 11.858 26.3079 15C26.3079 18.142 26.3079 19.713 25.866 20.976C25.0744 23.238 23.2959 25.0165 21.0339 25.8081C19.7709 26.25 18.1999 26.25 15.0579 26.25C11.9158 26.25 10.3448 26.25 9.08191 25.8081C6.81985 25.0165 5.04131 23.238 4.24979 20.976C3.80786 19.713 3.80786 18.142 3.80786 15ZM19.7797 14.2998C19.927 15.293 19.7574 16.3072 19.2949 17.1985C18.8325 18.0897 18.1009 18.8124 17.204 19.2639C16.3071 19.7153 15.2907 19.8724 14.2995 19.7129C13.3082 19.5534 12.3925 19.0854 11.6825 18.3754C10.9725 17.6654 10.5045 16.7496 10.345 15.7584C10.1855 14.7671 10.3426 13.7508 10.794 12.8539C11.2454 11.9571 11.9681 11.2254 12.8594 10.763C13.7506 10.3005 14.7649 10.1309 15.758 10.2782C16.7711 10.4284 17.709 10.9004 18.4332 11.6246C19.1574 12.3488 19.6295 13.2868 19.7797 14.2998Z" stroke="#010100" stroke-width="2" stroke-linecap="round" stroke-linejoin="round"/>
</svg>
