<svg width="30" height="30" viewBox="0 0 30 30" fill="none" xmlns="http://www.w3.org/2000/svg">
<path d="M10 13.75V20M13.75 12.5V15M13.75 20V15.2871C13.75 14.3934 14.3809 13.6238 15.2573 13.4485L17.0097 13.0981C18.5567 12.7887 20 13.9719 20 15.5495V20M10 10H10.0125M3.75 15C3.75 11.858 3.75 10.287 4.19192 9.02406C4.98345 6.76198 6.76198 4.98345 9.02406 4.19192C10.287 3.75 11.858 3.75 15 3.75C18.142 3.75 19.713 3.75 20.976 4.19192C23.238 4.98345 25.0166 6.76198 25.8081 9.02406C26.25 10.287 26.25 11.858 26.25 15C26.25 18.142 26.25 19.713 25.8081 20.976C25.0166 23.238 23.238 25.0166 20.976 25.8081C19.713 26.25 18.142 26.25 15 26.25C11.858 26.25 10.287 26.25 9.02406 25.8081C6.76198 25.0166 4.98345 23.238 4.19192 20.976C3.75 19.713 3.75 18.142 3.75 15Z" stroke="#010100" stroke-width="2" stroke-linecap="round" stroke-linejoin="round"/>
</svg>
