<svg width="30" height="30" viewBox="0 0 30 30" fill="none" xmlns="http://www.w3.org/2000/svg">
<path d="M26.201 6.56861C26.4249 6.05571 25.8364 5.62374 25.3431 5.88811C24.5697 6.30266 23.7556 6.63971 22.9128 6.89351C19.5201 2.65648 13.6749 6.22353 14.5388 10.793C14.5668 10.9413 14.4565 11.0848 14.3056 11.082C11.1274 11.0222 8.88376 9.98831 6.71872 7.55229C6.41135 7.20646 5.86739 7.22276 5.63485 7.62276C4.20443 10.0833 0.673265 17.7155 9.75735 20.7756C7.98085 21.9815 5.66316 23.0056 4.47586 23.4954C4.18219 23.6165 4.16965 24.0332 4.45929 24.1637C16.3132 29.5032 27.8499 21.726 24.1968 9.48582C25.048 8.6464 25.7267 7.65524 26.201 6.56861Z" stroke="#010100" stroke-width="2" stroke-linecap="round" stroke-linejoin="round"/>
</svg>
