<svg width="26" height="20" viewBox="0 0 26 20" fill="none" xmlns="http://www.w3.org/2000/svg">
<path d="M15.625 1H10C6.8497 1 5.27456 1 4.0713 1.61309C3.01289 2.15238 2.15238 3.01289 1.61309 4.0713C1 5.27456 1 6.8497 1 10C1 13.1503 1 14.7254 1.61309 15.9287C2.15238 16.9871 3.01289 17.8476 4.0713 18.3869C5.27456 19 6.8497 19 10 19H15.625C18.7753 19 20.3504 19 21.5537 18.3869C22.6121 17.8476 23.4726 16.9871 24.0119 15.9287C24.625 14.7254 24.625 13.1503 24.625 10C24.625 6.8497 24.625 5.27456 24.0119 4.0713C23.4726 3.01289 22.6121 2.15238 21.5537 1.61309C20.3504 1 18.7753 1 15.625 1Z" stroke="black" stroke-width="1.6875"/>
<path d="M15.5998 8.46616L12.4278 6.56293C11.5506 6.03663 11.112 5.77348 10.7512 5.80328C10.4225 5.83042 10.1223 6.00038 9.92998 6.26823C9.71875 6.56235 9.71875 7.07383 9.71875 8.09677V11.9032C9.71875 12.9262 9.71875 13.4376 9.92998 13.7318C10.1223 13.9996 10.4225 14.1696 10.7512 14.1967C11.112 14.2265 11.5506 13.9634 12.4278 13.4371L13.9375 12.5312L15.5998 11.5338L15.5999 11.5338C16.434 11.0334 16.8511 10.7831 16.9957 10.4613C17.1276 10.1679 17.1276 9.83211 16.9957 9.53875C16.8511 9.21688 16.434 8.96664 15.5999 8.46616L15.5998 8.46616Z" fill="black"/>
</svg>
